<svg width="32" height="32" viewBox="0 0 32 32" fill="none" xmlns="http://www.w3.org/2000/svg">
<path fill-rule="evenodd" clip-rule="evenodd" d="M12.3526 11.9242C12.2928 12.1549 12.1885 12.3715 12.0455 12.5618C11.7793 12.9088 11.427 13.1794 11.0239 13.3466C10.6614 13.5035 10.2774 13.605 9.88493 13.6475C9.8042 13.6578 9.72057 13.6641 9.63954 13.6703L9.62632 13.6713C9.37772 13.6808 9.13868 13.77 8.9442 13.9258C8.74971 14.0817 8.60999 14.296 8.54551 14.5373C8.51598 14.6574 8.49402 14.7792 8.47977 14.9021C8.45719 15.0874 8.44556 15.2771 8.43298 15.4823C8.42396 15.6295 8.41444 15.7848 8.40003 15.9521C8.3156 16.6337 8.11933 17.2965 7.81922 17.9136C7.75787 18.0433 7.69535 18.1691 7.63394 18.2926C7.30485 18.9546 7.00757 19.5526 7.09293 20.3535C7.15974 20.9706 7.47439 21.3841 7.89249 21.8106C8.09107 22.0146 8.35438 22.1889 8.62772 22.3699C9.39267 22.8763 10.2361 23.4347 9.95821 24.8415C9.73084 25.9814 7.84939 27.1776 5.20501 27.5954C5.46153 27.5563 4.89651 26.5879 4.83376 26.4804L4.83002 26.4739C4.75712 26.3592 4.68244 26.2462 4.60788 26.1334L4.60785 26.1334L4.60784 26.1334C4.39257 25.8076 4.17833 25.4835 4.01106 25.1241C3.56926 24.1856 3.36451 23.0998 3.54555 22.0714C3.70954 21.1407 4.32207 20.3972 4.91183 19.6813L4.91184 19.6813C5.00798 19.5646 5.10351 19.4487 5.1964 19.3328C5.98518 18.3488 6.81276 17.0595 6.99595 15.7822C7.0114 15.6712 7.02519 15.5502 7.0397 15.4229L7.0397 15.4229L7.0397 15.4229C7.06567 15.195 7.09395 14.9469 7.13819 14.6997C7.20394 14.2728 7.33708 13.8591 7.53258 13.4743C7.66603 13.222 7.84172 12.9946 8.05197 12.8021C8.16159 12.6999 8.23391 12.5637 8.25736 12.4153C8.2808 12.267 8.25401 12.115 8.18128 11.9837L3.9658 4.36731L10.0207 11.8733C10.0897 11.9603 10.1768 12.031 10.276 12.0803C10.3752 12.1296 10.484 12.1564 10.5946 12.1588C10.7053 12.1612 10.8151 12.1391 10.9163 12.094C11.0175 12.049 11.1076 11.9821 11.1802 11.8982C11.2569 11.8084 11.3004 11.6947 11.3033 11.5763C11.3063 11.458 11.2685 11.3423 11.1963 11.2487C10.9148 10.8873 10.6218 10.521 10.3302 10.1563L10.33 10.156C10.212 10.0085 10.0943 9.86132 9.9776 9.71482L8.45391 7.82046L5.39575 4.03824L2 0L5.78799 3.69942L9.04334 7.31494L10.6673 9.12703C10.8165 9.29579 10.9657 9.46306 11.1148 9.63033C11.5044 10.0671 11.894 10.5039 12.2836 10.9673L12.372 11.0755L12.3914 11.2433C12.4176 11.4708 12.4045 11.7012 12.3526 11.9242ZM27.9247 14.4697L27.9311 14.4795C27.93 13.6719 27.4322 12.3394 26.4247 11.0577L26.401 11.0263C26.0906 10.641 25.7524 10.2792 25.3891 9.94383C25.3212 9.8778 25.248 9.81285 25.1736 9.7479C24.7081 9.34008 24.1993 8.98504 23.6564 8.68922L23.6176 8.66973C21.9118 7.73663 19.692 7.256 16.9549 7.79725C16.5873 7.34894 16.1914 6.92481 15.7696 6.52749C15.1236 5.90915 14.3632 5.42406 13.5315 5.09968C12.7072 4.79657 11.8244 4.68841 10.9517 4.7836C11.7929 4.85967 12.6123 5.09472 13.3666 5.47639C14.0951 5.86845 14.7512 6.38326 15.3062 6.99837C15.8688 7.62626 16.3976 8.28391 16.8903 8.9685L17.0139 9.13017C17.496 9.76091 17.9868 10.403 18.5982 10.9744C18.9348 11.2925 19.3103 11.5664 19.7157 11.7895C19.8234 11.8447 19.9323 11.8966 20.039 11.9421C20.1456 11.9876 20.2458 12.0298 20.3536 12.0688C20.5616 12.1499 20.7771 12.2171 20.9926 12.2788C21.8547 12.5256 22.7372 12.6143 23.5993 12.662C23.7192 12.6683 23.8389 12.6742 23.9581 12.6801L23.9583 12.6801C24.2662 12.6954 24.5713 12.7105 24.8719 12.7323C25.2837 12.7569 25.6922 12.8214 26.0917 12.925C26.6918 13.0822 27.2201 13.4413 27.5885 13.9425C27.7137 14.1095 27.8261 14.2857 27.9247 14.4697ZM25.4013 9.94506C25.358 9.90486 25.3139 9.86507 25.27 9.82543L25.27 9.82537C25.2418 9.79992 25.2136 9.77453 25.1858 9.74913C25.2073 9.76879 25.2288 9.78874 25.2503 9.80866C25.3009 9.85565 25.3514 9.90249 25.4013 9.94506ZM24.3238 17.9172C21.5516 16.7872 18.6518 15.6051 19.0835 12.2875C20.0091 13.2802 21.462 13.4884 23.0422 13.7149C24.4757 13.9203 26.0139 14.1407 27.3583 14.9753C30.5306 16.9433 30.0673 20.7666 28.9897 22.1739C29.0869 19.8587 26.7544 18.908 24.3238 17.9172ZM13.1551 16.2567C13.8868 16.1863 15.4461 15.8042 14.7489 14.5712C14.5989 14.3204 14.3815 14.1172 14.1217 13.9848C13.8619 13.8525 13.5702 13.7965 13.2801 13.8232C12.9858 13.855 12.7082 13.9769 12.4852 14.1725C12.2622 14.3681 12.1044 14.6278 12.0334 14.9165C11.8168 15.723 12.0463 16.3649 13.1551 16.2567ZM12.9448 6.50141C12.4858 5.96882 11.7735 5.68954 11.0752 5.58778C11.0491 5.76246 11.0326 5.93845 11.0257 6.11496C10.9944 7.56874 11.5084 9.16542 12.503 10.275C12.8212 10.6337 13.2049 10.9276 13.6334 11.141C13.8812 11.2622 14.5386 11.5631 14.7821 11.2925C14.8006 11.2677 14.8123 11.2384 14.8159 11.2076C14.8195 11.1768 14.8149 11.1456 14.8026 11.1172C14.7622 11.0013 14.6843 10.8961 14.6069 10.7917C14.552 10.7177 14.4974 10.6441 14.4567 10.5672C14.4155 10.4898 14.3714 10.4142 14.3274 10.3388L14.3274 10.3388C14.2447 10.197 14.1622 10.0555 14.0989 9.90151C13.9319 9.49842 13.845 9.06979 13.7583 8.64252L13.7583 8.64244L13.7583 8.64235L13.7583 8.64227L13.7582 8.64219L13.7582 8.6421L13.7582 8.64202C13.7409 8.55656 13.7236 8.47116 13.7056 8.38602C13.5731 7.72679 13.4039 7.03399 12.9448 6.50141ZM22.7524 18.098C22.0403 20.0943 23.1888 21.7804 24.3306 23.4566C25.6077 25.3315 26.8764 27.194 25.5228 29.4642C28.1532 28.3731 29.4021 25.0769 28.3105 22.4616C27.6227 20.8074 25.9649 19.9106 24.4261 19.0783L24.4261 19.0783L24.426 19.0782C23.829 18.7553 23.2499 18.4421 22.7524 18.098ZM15.0552 22.8633C14.5785 23.0587 14.129 23.3152 13.7179 23.6265C14.6527 23.2859 15.6339 23.0914 16.6274 23.0495C16.8074 23.0388 16.9887 23.0304 17.1715 23.0219L17.1717 23.0219L17.172 23.0219C17.4878 23.0073 17.8085 22.9925 18.136 22.9651C18.6729 22.9285 19.2025 22.8192 19.7103 22.6403C20.2425 22.4533 20.7268 22.1501 21.1284 21.7527C21.5342 21.3424 21.8188 20.8272 21.9506 20.2642C22.0666 19.7324 22.0503 19.1801 21.9032 18.6562C21.756 18.1322 21.4825 17.6528 21.1069 17.2603C21.2881 17.7221 21.3996 18.2084 21.4377 18.7033C21.4705 19.164 21.4081 19.6265 21.2545 20.0618C21.1045 20.4744 20.8593 20.8454 20.539 21.1443C20.2081 21.4462 19.825 21.6846 19.4086 21.8479C18.8299 22.0821 18.1755 22.1779 17.4939 22.2777C17.183 22.3232 16.8664 22.3696 16.5487 22.4303C16.0378 22.5243 15.5374 22.6694 15.0552 22.8633ZM23.3187 31.1046L23.273 31.1415L23.273 31.1416C23.1525 31.2389 23.0301 31.3379 22.8982 31.4268C22.7301 31.538 22.554 31.6365 22.3713 31.7212C21.9908 31.9077 21.5726 32.0029 21.1493 31.9994C20.0028 31.9778 19.1924 31.1205 18.7183 30.1516C18.594 29.8977 18.4845 29.6359 18.375 29.3741L18.375 29.3741C18.1997 28.9551 18.0244 28.5361 17.7883 28.149C17.2399 27.2495 16.3013 26.5253 15.2022 26.6595C14.7539 26.7158 14.3336 26.9182 14.0847 27.309C13.4295 28.3298 14.3703 29.7598 15.5696 29.5573C15.6716 29.5417 15.7714 29.5141 15.867 29.4751C15.9623 29.4343 16.0512 29.38 16.131 29.3138C16.2986 29.1736 16.4248 28.9903 16.4963 28.7834C16.5751 28.5676 16.5926 28.3341 16.547 28.109C16.4978 27.8736 16.3594 27.6668 16.1612 27.532C16.3917 27.6404 16.5713 27.8345 16.6623 28.0732C16.7566 28.319 16.7809 28.5862 16.7323 28.8451C16.6852 29.1147 16.5669 29.3667 16.3896 29.5747C16.2955 29.6816 16.1866 29.7746 16.0664 29.8507C15.9472 29.9259 15.8195 29.9866 15.686 30.0315C15.4153 30.1244 15.1272 30.1544 14.8433 30.1192C14.4447 30.0621 14.0688 29.8983 13.755 29.645C13.697 29.599 13.6414 29.5508 13.5875 29.5008C13.374 29.3158 13.1802 29.1087 13.0093 28.8829C12.9326 28.7981 12.8547 28.7144 12.7733 28.634C12.3891 28.229 11.9358 27.8965 11.4349 27.6522C11.0895 27.4998 10.728 27.3872 10.3574 27.3166C10.1709 27.2776 9.98237 27.2495 9.7938 27.2257C9.77334 27.2236 9.73396 27.2167 9.68499 27.2082L9.68468 27.2081L9.68463 27.2081L9.68461 27.2081L9.68458 27.2081L9.68453 27.2081C9.52708 27.1806 9.27107 27.136 9.22591 27.178C9.80877 26.639 10.4441 26.1603 11.1224 25.7491C11.8189 25.334 12.5667 25.0126 13.3466 24.7933C14.1551 24.5647 15.0009 24.4995 15.8347 24.6017C16.2639 24.6535 16.6843 24.7627 17.0847 24.9264C17.5042 25.0948 17.8914 25.3351 18.2291 25.6366C18.5632 25.9528 18.8333 26.3311 19.0243 26.7504C19.1968 27.1431 19.3254 27.5537 19.4079 27.9747C19.4521 28.2013 19.4855 28.4502 19.5199 28.7079L19.52 28.7079L19.52 28.708L19.52 28.708C19.6771 29.8823 19.8585 31.2372 21.2043 31.4733C21.2898 31.49 21.3761 31.5023 21.4629 31.5102L21.7312 31.5166C21.9157 31.5034 22.099 31.477 22.2797 31.4376C22.6541 31.3492 23.019 31.2241 23.3691 31.0642L23.3187 31.1046ZM13.0801 28.9619C13.1123 28.9989 13.1449 29.0355 13.1779 29.0718C13.1644 29.0567 13.151 29.0415 13.1375 29.0264L13.1375 29.0264L13.1375 29.0264L13.1375 29.0264C13.1184 29.0049 13.0993 28.9834 13.0801 28.9619Z" fill="#FC72FF"/>
</svg>
